<mxfile host="app.diagrams.net" agent="Mozilla/5.0 (Windows NT 10.0; Win64; x64) AppleWebKit/537.36 (KHTML, like Gecko) Chrome/130.0.0.0 Safari/537.36" version="24.8.6">
  <diagram name="Сторінка-1" id="5y9FMOG-ftC8LodNQX9X">
    <mxGraphModel grid="1" page="1" gridSize="10" guides="1" tooltips="1" connect="1" arrows="1" fold="1" pageScale="1" pageWidth="827" pageHeight="1169" math="0" shadow="0">
      <root>
        <mxCell id="0" />
        <mxCell id="1" parent="0" />
        <mxCell id="9bB2cu8jOApNUNbQz5wo-4" value="" style="edgeStyle=orthogonalEdgeStyle;rounded=0;orthogonalLoop=1;jettySize=auto;html=1;" edge="1" parent="1" source="9bB2cu8jOApNUNbQz5wo-1" target="9bB2cu8jOApNUNbQz5wo-3">
          <mxGeometry relative="1" as="geometry" />
        </mxCell>
        <mxCell id="9bB2cu8jOApNUNbQz5wo-1" value="&lt;font style=&quot;font-size: 18px;&quot;&gt;Start&lt;/font&gt;" style="ellipse;whiteSpace=wrap;html=1;" vertex="1" parent="1">
          <mxGeometry x="354" y="20" width="120" height="80" as="geometry" />
        </mxCell>
        <mxCell id="9bB2cu8jOApNUNbQz5wo-9" value="" style="edgeStyle=orthogonalEdgeStyle;rounded=0;orthogonalLoop=1;jettySize=auto;html=1;" edge="1" parent="1" source="9bB2cu8jOApNUNbQz5wo-2" target="9bB2cu8jOApNUNbQz5wo-8">
          <mxGeometry relative="1" as="geometry" />
        </mxCell>
        <mxCell id="9bB2cu8jOApNUNbQz5wo-2" value="&lt;div style=&quot;font-family: Consolas, &amp;quot;Courier New&amp;quot;, monospace; font-size: 14px; line-height: 19px; white-space: pre;&quot;&gt;&lt;font color=&quot;#030303&quot;&gt;Area(x0, y0, x1, y1, x2, y2)&lt;/font&gt;&lt;/div&gt;" style="shape=process;whiteSpace=wrap;html=1;backgroundOutline=1;" vertex="1" parent="1">
          <mxGeometry x="269" y="340" width="290" height="70" as="geometry" />
        </mxCell>
        <mxCell id="9bB2cu8jOApNUNbQz5wo-6" value="" style="edgeStyle=orthogonalEdgeStyle;rounded=0;orthogonalLoop=1;jettySize=auto;html=1;" edge="1" parent="1" source="9bB2cu8jOApNUNbQz5wo-3" target="9bB2cu8jOApNUNbQz5wo-5">
          <mxGeometry relative="1" as="geometry" />
        </mxCell>
        <mxCell id="9bB2cu8jOApNUNbQz5wo-3" value="&lt;font style=&quot;font-size: 14px;&quot;&gt;Ініцілізація&lt;br&gt;double змінних для вершин трикутника&lt;/font&gt;" style="rounded=0;whiteSpace=wrap;html=1;" vertex="1" parent="1">
          <mxGeometry x="342" y="140" width="144" height="60" as="geometry" />
        </mxCell>
        <mxCell id="9bB2cu8jOApNUNbQz5wo-7" value="" style="edgeStyle=orthogonalEdgeStyle;rounded=0;orthogonalLoop=1;jettySize=auto;html=1;" edge="1" parent="1" source="9bB2cu8jOApNUNbQz5wo-5" target="9bB2cu8jOApNUNbQz5wo-2">
          <mxGeometry relative="1" as="geometry" />
        </mxCell>
        <mxCell id="9bB2cu8jOApNUNbQz5wo-5" value="&lt;font style=&quot;font-size: 14px;&quot;&gt;Введення координатів для кожної вершини&lt;/font&gt;" style="shape=parallelogram;perimeter=parallelogramPerimeter;whiteSpace=wrap;html=1;fixedSize=1;" vertex="1" parent="1">
          <mxGeometry x="343.5" y="240" width="141" height="60" as="geometry" />
        </mxCell>
        <mxCell id="9bB2cu8jOApNUNbQz5wo-11" value="" style="edgeStyle=orthogonalEdgeStyle;rounded=0;orthogonalLoop=1;jettySize=auto;html=1;" edge="1" parent="1" source="9bB2cu8jOApNUNbQz5wo-8" target="9bB2cu8jOApNUNbQz5wo-10">
          <mxGeometry relative="1" as="geometry" />
        </mxCell>
        <mxCell id="9bB2cu8jOApNUNbQz5wo-8" value="&lt;font style=&quot;font-size: 14px;&quot;&gt;Виведення обчисленої &lt;br&gt;площі&lt;/font&gt;" style="shape=parallelogram;perimeter=parallelogramPerimeter;whiteSpace=wrap;html=1;fixedSize=1;" vertex="1" parent="1">
          <mxGeometry x="354" y="450" width="120" height="60" as="geometry" />
        </mxCell>
        <mxCell id="9bB2cu8jOApNUNbQz5wo-10" value="&lt;font style=&quot;font-size: 18px;&quot;&gt;End&lt;/font&gt;" style="ellipse;whiteSpace=wrap;html=1;" vertex="1" parent="1">
          <mxGeometry x="354" y="545" width="120" height="80" as="geometry" />
        </mxCell>
        <mxCell id="9bB2cu8jOApNUNbQz5wo-14" value="" style="edgeStyle=orthogonalEdgeStyle;rounded=0;orthogonalLoop=1;jettySize=auto;html=1;" edge="1" parent="1" source="9bB2cu8jOApNUNbQz5wo-12" target="9bB2cu8jOApNUNbQz5wo-13">
          <mxGeometry relative="1" as="geometry" />
        </mxCell>
        <mxCell id="9bB2cu8jOApNUNbQz5wo-12" value="&lt;span style=&quot;color: rgb(3, 3, 3); font-family: Consolas, &amp;quot;Courier New&amp;quot;, monospace; font-size: 14px; white-space: pre;&quot;&gt;Area(x0, y0, x1, y1, x2, y2)&lt;/span&gt;" style="ellipse;whiteSpace=wrap;html=1;" vertex="1" parent="1">
          <mxGeometry x="679" y="20" width="240" height="70" as="geometry" />
        </mxCell>
        <mxCell id="9bB2cu8jOApNUNbQz5wo-16" value="" style="edgeStyle=orthogonalEdgeStyle;rounded=0;orthogonalLoop=1;jettySize=auto;html=1;" edge="1" parent="1" source="9bB2cu8jOApNUNbQz5wo-13" target="9bB2cu8jOApNUNbQz5wo-15">
          <mxGeometry relative="1" as="geometry" />
        </mxCell>
        <mxCell id="9bB2cu8jOApNUNbQz5wo-13" value="&lt;font style=&quot;font-size: 14px;&quot;&gt;Ініцілізація змінної для збереження обчисленої площі&lt;/font&gt;" style="rounded=0;whiteSpace=wrap;html=1;" vertex="1" parent="1">
          <mxGeometry x="724" y="125" width="150" height="60" as="geometry" />
        </mxCell>
        <mxCell id="9bB2cu8jOApNUNbQz5wo-18" value="" style="edgeStyle=orthogonalEdgeStyle;rounded=0;orthogonalLoop=1;jettySize=auto;html=1;" edge="1" parent="1" source="9bB2cu8jOApNUNbQz5wo-15" target="9bB2cu8jOApNUNbQz5wo-17">
          <mxGeometry relative="1" as="geometry" />
        </mxCell>
        <mxCell id="9bB2cu8jOApNUNbQz5wo-22" value="" style="edgeStyle=orthogonalEdgeStyle;rounded=0;orthogonalLoop=1;jettySize=auto;html=1;" edge="1" parent="1" source="9bB2cu8jOApNUNbQz5wo-15" target="9bB2cu8jOApNUNbQz5wo-21">
          <mxGeometry relative="1" as="geometry" />
        </mxCell>
        <mxCell id="9bB2cu8jOApNUNbQz5wo-15" value="&lt;font style=&quot;font-size: 14px;&quot;&gt;Площа від&#39;ємна ?&lt;/font&gt;" style="rhombus;whiteSpace=wrap;html=1;" vertex="1" parent="1">
          <mxGeometry x="754" y="225" width="90" height="80" as="geometry" />
        </mxCell>
        <mxCell id="9bB2cu8jOApNUNbQz5wo-17" value="&lt;font style=&quot;font-size: 14px;&quot;&gt;return fabs(dArea)&lt;/font&gt;" style="ellipse;whiteSpace=wrap;html=1;" vertex="1" parent="1">
          <mxGeometry x="559" y="225" width="140" height="80" as="geometry" />
        </mxCell>
        <mxCell id="9bB2cu8jOApNUNbQz5wo-19" value="&lt;font style=&quot;font-size: 14px;&quot;&gt;YES&lt;/font&gt;" style="text;strokeColor=none;align=center;fillColor=none;html=1;verticalAlign=middle;whiteSpace=wrap;rounded=0;" vertex="1" parent="1">
          <mxGeometry x="709" y="240" width="60" height="30" as="geometry" />
        </mxCell>
        <mxCell id="9bB2cu8jOApNUNbQz5wo-20" value="&lt;font style=&quot;font-size: 14px;&quot;&gt;NO&lt;/font&gt;" style="text;strokeColor=none;align=center;fillColor=none;html=1;verticalAlign=middle;whiteSpace=wrap;rounded=0;" vertex="1" parent="1">
          <mxGeometry x="784" y="305" width="60" height="30" as="geometry" />
        </mxCell>
        <mxCell id="9bB2cu8jOApNUNbQz5wo-21" value="&lt;font style=&quot;font-size: 14px;&quot;&gt;return dArea&lt;/font&gt;" style="ellipse;whiteSpace=wrap;html=1;" vertex="1" parent="1">
          <mxGeometry x="739" y="350" width="120" height="80" as="geometry" />
        </mxCell>
      </root>
    </mxGraphModel>
  </diagram>
</mxfile>
